<svg xmlns="http://www.w3.org/2000/svg" width="64" height="64" fill="none" viewBox="-2.4 -2.4 28.8 28.8"><g id="SVGRepo_bgCarrier" stroke-width="0"><rect width="28.8" height="28.8" x="-2.4" y="-2.4" fill="#9af9a0" rx="4.608" strokewidth="0"/></g><g id="SVGRepo_iconCarrier"><path stroke="#1410f9" stroke-linecap="round" stroke-width="1.5" d="M15 12L12 12M12 12L9 12M12 12L12 9M12 12L12 15"/><path stroke="#1410f9" stroke-linecap="round" stroke-width="1.5" d="M22 12C22 16.714 22 19.0711 20.5355 20.5355C19.0711 22 16.714 22 12 22C7.28595 22 4.92893 22 3.46447 20.5355C2 19.0711 2 16.714 2 12C2 7.28595 2 4.92893 3.46447 3.46447C4.92893 2 7.28595 2 12 2C16.714 2 19.0711 2 20.5355 3.46447C21.5093 4.43821 21.8356 5.80655 21.9449 8"/></g></svg>